<svg width="2746" height="190" viewBox="0 0 2746 190" fill="none" xmlns="http://www.w3.org/2000/svg">
<g filter="url(#filter0_d_2003_626)">
<path d="M334.257 58C320.317 58 306.461 63.7402 296.604 73.5977C290.393 79.8081 285.822 87.6054 283.286 96.0106C277.193 97.161 271.438 100.135 267.049 104.523C261.33 110.243 258 118.28 258 126.369C258 134.458 261.33 142.497 267.049 148.217C272.769 153.936 280.808 157.266 288.897 157.266H427.278C432.441 157.266 437.574 155.142 441.225 151.491C444.876 147.84 447 142.707 447 137.544C447 132.381 444.876 127.251 441.225 123.601C437.596 119.972 432.504 117.854 427.373 117.828C426.372 108.473 422.134 99.4689 415.476 92.811C407.809 85.1442 397.034 80.68 386.191 80.68C383.559 80.68 380.932 80.9499 378.351 81.4581C376.463 78.6397 374.312 75.9984 371.911 73.5977C362.054 63.7402 348.198 58 334.257 58Z" fill="#F1F7EE"/>
</g>
<g filter="url(#filter1_d_2003_626)">
<path d="M76.2573 82C62.3169 82 48.4611 87.7402 38.6038 97.5977C32.3932 103.808 27.8217 111.605 25.2864 120.011C19.1927 121.161 13.4376 124.135 9.04933 128.523C3.32964 134.243 0 142.28 0 150.369C0 158.458 3.32964 166.497 9.04933 172.217C14.7691 177.936 22.8085 181.266 30.8974 181.266H169.278C174.441 181.266 179.574 179.142 183.225 175.491C186.876 171.84 189 166.707 189 161.544C189 156.381 186.876 151.251 183.225 147.601C179.596 143.972 174.504 141.854 169.373 141.828C168.372 132.473 164.134 123.469 157.476 116.811C149.809 109.144 139.034 104.68 128.191 104.68C125.559 104.68 122.932 104.95 120.351 105.458C118.463 102.64 116.312 99.9984 113.911 97.5977C104.054 87.7402 90.1979 82 76.2573 82Z" fill="#F1F7EE"/>
</g>
<g filter="url(#filter2_d_2003_626)">
<path d="M174.697 17C164.15 17 153.666 21.7418 146.208 29.8846C141.509 35.0149 138.05 41.4559 136.132 48.3992C131.521 49.3494 127.167 51.8063 123.847 55.4312C119.519 60.156 117 66.7949 117 73.4768C117 80.1588 119.519 86.7998 123.847 91.5247C128.174 96.2495 134.257 99 140.377 99H245.078C248.985 99 252.868 97.2451 255.63 94.2294C258.393 91.2135 260 86.9737 260 82.7086C260 78.4435 258.393 74.2061 255.63 71.1902C252.885 68.1928 249.032 66.443 245.15 66.4214C244.393 58.6939 241.186 51.2559 236.148 45.7561C230.348 39.4228 222.195 35.7351 213.991 35.7351C212 35.7351 210.012 35.9581 208.059 36.3778C206.63 34.0497 205.003 31.8678 203.187 29.8846C195.728 21.7418 185.245 17 174.697 17Z" fill="#F1F7EE"/>
</g>
<g filter="url(#filter3_d_2003_626)">
<path d="M653.257 58C639.317 58 625.461 63.7402 615.604 73.5977C609.393 79.8081 604.822 87.6054 602.286 96.0106C596.193 97.161 590.438 100.135 586.049 104.523C580.33 110.243 577 118.28 577 126.369C577 134.458 580.33 142.497 586.049 148.217C591.769 153.936 599.808 157.266 607.897 157.266H746.278C751.441 157.266 756.574 155.142 760.225 151.491C763.876 147.84 766 142.707 766 137.544C766 132.381 763.876 127.251 760.225 123.601C756.596 119.972 751.504 117.854 746.373 117.828C745.372 108.473 741.134 99.4689 734.476 92.811C726.809 85.1442 716.034 80.68 705.191 80.68C702.559 80.68 699.932 80.9499 697.351 81.4581C695.463 78.6397 693.312 75.9984 690.911 73.5977C681.054 63.7402 667.198 58 653.257 58Z" fill="#F1F7EE"/>
</g>
<g filter="url(#filter4_d_2003_626)">
<path d="M808.257 0C794.317 0 780.461 5.7402 770.604 15.5977C764.393 21.8081 759.822 29.6054 757.286 38.0106C751.193 39.161 745.438 42.1351 741.049 46.5233C735.33 52.243 732 60.2798 732 68.3687C732 76.4576 735.33 84.497 741.049 90.2167C746.769 95.9364 754.808 99.266 762.897 99.266H901.278C906.441 99.266 911.574 97.1416 915.225 93.4909C918.876 89.84 921 84.7075 921 79.5443C921 74.3812 918.876 69.2514 915.225 65.6006C911.596 61.972 906.504 59.8538 901.373 59.8277C900.372 50.473 896.134 41.4689 889.476 34.811C881.809 27.1442 871.034 22.68 860.191 22.68C857.559 22.68 854.932 22.9499 852.351 23.4581C850.463 20.6397 848.312 17.9984 845.911 15.5977C836.054 5.7402 822.198 0 808.257 0Z" fill="#F1F7EE"/>
</g>
<g filter="url(#filter5_d_2003_626)">
<path d="M491.697 17C481.15 17 470.666 21.7418 463.208 29.8846C458.509 35.0149 455.05 41.4559 453.132 48.3992C448.521 49.3494 444.167 51.8063 440.847 55.4312C436.519 60.156 434 66.7949 434 73.4768C434 80.1588 436.519 86.7998 440.847 91.5247C445.174 96.2495 451.257 99 457.377 99H562.078C565.985 99 569.868 97.2451 572.63 94.2294C575.393 91.2135 577 86.9737 577 82.7086C577 78.4435 575.393 74.2061 572.63 71.1902C569.885 68.1928 566.032 66.443 562.15 66.4214C561.393 58.6939 558.186 51.2559 553.148 45.7561C547.348 39.4228 539.195 35.7351 530.991 35.7351C529 35.7351 527.012 35.9581 525.059 36.3778C523.63 34.0497 522.003 31.8678 520.187 29.8846C512.728 21.7418 502.245 17 491.697 17Z" fill="#F1F7EE"/>
</g>
<g filter="url(#filter6_d_2003_626)">
<path d="M1230.26 58C1216.32 58 1202.46 63.7402 1192.6 73.5977C1186.39 79.8081 1181.82 87.6054 1179.29 96.0106C1173.19 97.161 1167.44 100.135 1163.05 104.523C1157.33 110.243 1154 118.28 1154 126.369C1154 134.458 1157.33 142.497 1163.05 148.217C1168.77 153.936 1176.81 157.266 1184.9 157.266H1323.28C1328.44 157.266 1333.57 155.142 1337.22 151.491C1340.88 147.84 1343 142.707 1343 137.544C1343 132.381 1340.88 127.251 1337.22 123.601C1333.6 119.972 1328.5 117.854 1323.37 117.828C1322.37 108.473 1318.13 99.4689 1311.48 92.811C1303.81 85.1442 1293.03 80.68 1282.19 80.68C1279.56 80.68 1276.93 80.9499 1274.35 81.4581C1272.46 78.6397 1270.31 75.9984 1267.91 73.5977C1258.05 63.7402 1244.2 58 1230.26 58Z" fill="#F1F7EE"/>
</g>
<g filter="url(#filter7_d_2003_626)">
<path d="M972.257 82C958.317 82 944.461 87.7402 934.604 97.5977C928.393 103.808 923.822 111.605 921.286 120.011C915.193 121.161 909.438 124.135 905.049 128.523C899.33 134.243 896 142.28 896 150.369C896 158.458 899.33 166.497 905.049 172.217C910.769 177.936 918.808 181.266 926.897 181.266H1065.28C1070.44 181.266 1075.57 179.142 1079.22 175.491C1082.88 171.84 1085 166.707 1085 161.544C1085 156.381 1082.88 151.251 1079.22 147.601C1075.6 143.972 1070.5 141.854 1065.37 141.828C1064.37 132.473 1060.13 123.469 1053.48 116.811C1045.81 109.144 1035.03 104.68 1024.19 104.68C1021.56 104.68 1018.93 104.95 1016.35 105.458C1014.46 102.64 1012.31 99.9984 1009.91 97.5977C1000.05 87.7402 986.198 82 972.257 82Z" fill="#F1F7EE"/>
</g>
<g filter="url(#filter8_d_2003_626)">
<path d="M1070.7 17C1060.15 17 1049.67 21.7418 1042.21 29.8846C1037.51 35.0149 1034.05 41.4559 1032.13 48.3992C1027.52 49.3494 1023.17 51.8063 1019.85 55.4312C1015.52 60.156 1013 66.7949 1013 73.4768C1013 80.1588 1015.52 86.7998 1019.85 91.5247C1024.17 96.2495 1030.26 99 1036.38 99H1141.08C1144.98 99 1148.87 97.2451 1151.63 94.2294C1154.39 91.2135 1156 86.9737 1156 82.7086C1156 78.4435 1154.39 74.2061 1151.63 71.1902C1148.88 68.1928 1145.03 66.443 1141.15 66.4214C1140.39 58.6939 1137.19 51.2559 1132.15 45.7561C1126.35 39.4228 1118.19 35.7351 1109.99 35.7351C1108 35.7351 1106.01 35.9581 1104.06 36.3778C1102.63 34.0497 1101 31.8678 1099.19 29.8846C1091.73 21.7418 1081.24 17 1070.7 17Z" fill="#F1F7EE"/>
</g>
<g filter="url(#filter9_d_2003_626)">
<path d="M1549.26 58C1535.32 58 1521.46 63.7402 1511.6 73.5977C1505.39 79.8081 1500.82 87.6054 1498.29 96.0106C1492.19 97.161 1486.44 100.135 1482.05 104.523C1476.33 110.243 1473 118.28 1473 126.369C1473 134.458 1476.33 142.497 1482.05 148.217C1487.77 153.936 1495.81 157.266 1503.9 157.266H1642.28C1647.44 157.266 1652.57 155.142 1656.22 151.491C1659.88 147.84 1662 142.707 1662 137.544C1662 132.381 1659.88 127.251 1656.22 123.601C1652.6 119.972 1647.5 117.854 1642.37 117.828C1641.37 108.473 1637.13 99.4689 1630.48 92.811C1622.81 85.1442 1612.03 80.68 1601.19 80.68C1598.56 80.68 1595.93 80.9499 1593.35 81.4581C1591.46 78.6397 1589.31 75.9984 1586.91 73.5977C1577.05 63.7402 1563.2 58 1549.26 58Z" fill="#F1F7EE"/>
</g>
<g filter="url(#filter10_d_2003_626)">
<path d="M1704.26 0C1690.32 0 1676.46 5.7402 1666.6 15.5977C1660.39 21.8081 1655.82 29.6054 1653.29 38.0106C1647.19 39.161 1641.44 42.1351 1637.05 46.5233C1631.33 52.243 1628 60.2798 1628 68.3687C1628 76.4577 1631.33 84.497 1637.05 90.2167C1642.77 95.9364 1650.81 99.266 1658.9 99.266H1797.28C1802.44 99.266 1807.57 97.1416 1811.22 93.4909C1814.88 89.84 1817 84.7075 1817 79.5443C1817 74.3812 1814.88 69.2514 1811.22 65.6006C1807.6 61.972 1802.5 59.8538 1797.37 59.8277C1796.37 50.473 1792.13 41.4689 1785.48 34.811C1777.81 27.1442 1767.03 22.68 1756.19 22.68C1753.56 22.68 1750.93 22.9499 1748.35 23.4581C1746.46 20.6397 1744.31 17.9984 1741.91 15.5977C1732.05 5.7402 1718.2 0 1704.26 0Z" fill="#F1F7EE"/>
</g>
<g filter="url(#filter11_d_2003_626)">
<path d="M1387.7 17C1377.15 17 1366.67 21.7418 1359.21 29.8846C1354.51 35.0149 1351.05 41.4559 1349.13 48.3992C1344.52 49.3494 1340.17 51.8063 1336.85 55.4312C1332.52 60.156 1330 66.7949 1330 73.4768C1330 80.1588 1332.52 86.7998 1336.85 91.5247C1341.17 96.2495 1347.26 99 1353.38 99H1458.08C1461.98 99 1465.87 97.2451 1468.63 94.2294C1471.39 91.2135 1473 86.9737 1473 82.7086C1473 78.4435 1471.39 74.2061 1468.63 71.1902C1465.88 68.1928 1462.03 66.443 1458.15 66.4214C1457.39 58.6939 1454.19 51.2559 1449.15 45.7561C1443.35 39.4228 1435.19 35.7351 1426.99 35.7351C1425 35.7351 1423.01 35.9581 1421.06 36.3778C1419.63 34.0497 1418 31.8678 1416.19 29.8846C1408.73 21.7418 1398.24 17 1387.7 17Z" fill="#F1F7EE"/>
</g>
<g filter="url(#filter12_d_2003_626)">
<path d="M2151.26 58C2137.32 58 2123.46 63.7402 2113.6 73.5977C2107.39 79.8081 2102.82 87.6054 2100.29 96.0106C2094.19 97.161 2088.44 100.135 2084.05 104.523C2078.33 110.243 2075 118.28 2075 126.369C2075 134.458 2078.33 142.497 2084.05 148.217C2089.77 153.936 2097.81 157.266 2105.9 157.266H2244.28C2249.44 157.266 2254.57 155.142 2258.22 151.491C2261.88 147.84 2264 142.707 2264 137.544C2264 132.381 2261.88 127.251 2258.22 123.601C2254.6 119.972 2249.5 117.854 2244.37 117.828C2243.37 108.473 2239.13 99.4689 2232.48 92.811C2224.81 85.1442 2214.03 80.68 2203.19 80.68C2200.56 80.68 2197.93 80.9499 2195.35 81.4581C2193.46 78.6397 2191.31 75.9984 2188.91 73.5977C2179.05 63.7402 2165.2 58 2151.26 58Z" fill="#F1F7EE"/>
</g>
<g filter="url(#filter13_d_2003_626)">
<path d="M1893.26 82C1879.32 82 1865.46 87.7402 1855.6 97.5977C1849.39 103.808 1844.82 111.605 1842.29 120.011C1836.19 121.161 1830.44 124.135 1826.05 128.523C1820.33 134.243 1817 142.28 1817 150.369C1817 158.458 1820.33 166.497 1826.05 172.217C1831.77 177.936 1839.81 181.266 1847.9 181.266H1986.28C1991.44 181.266 1996.57 179.142 2000.22 175.491C2003.88 171.84 2006 166.707 2006 161.544C2006 156.381 2003.88 151.251 2000.22 147.601C1996.6 143.972 1991.5 141.854 1986.37 141.828C1985.37 132.473 1981.13 123.469 1974.48 116.811C1966.81 109.144 1956.03 104.68 1945.19 104.68C1942.56 104.68 1939.93 104.95 1937.35 105.458C1935.46 102.64 1933.31 99.9984 1930.91 97.5977C1921.05 87.7402 1907.2 82 1893.26 82Z" fill="#F1F7EE"/>
</g>
<g filter="url(#filter14_d_2003_626)">
<path d="M1991.7 17C1981.15 17 1970.67 21.7418 1963.21 29.8846C1958.51 35.0149 1955.05 41.4559 1953.13 48.3992C1948.52 49.3494 1944.17 51.8063 1940.85 55.4312C1936.52 60.156 1934 66.7949 1934 73.4768C1934 80.1588 1936.52 86.7998 1940.85 91.5247C1945.17 96.2495 1951.26 99 1957.38 99H2062.08C2065.98 99 2069.87 97.2451 2072.63 94.2294C2075.39 91.2135 2077 86.9737 2077 82.7086C2077 78.4435 2075.39 74.2061 2072.63 71.1902C2069.88 68.1928 2066.03 66.443 2062.15 66.4214C2061.39 58.6939 2058.19 51.2559 2053.15 45.7561C2047.35 39.4228 2039.19 35.7351 2030.99 35.7351C2029 35.7351 2027.01 35.9581 2025.06 36.3778C2023.63 34.0497 2022 31.8678 2020.19 29.8846C2012.73 21.7418 2002.24 17 1991.7 17Z" fill="#F1F7EE"/>
</g>
<g filter="url(#filter15_d_2003_626)">
<path d="M2470.26 58C2456.32 58 2442.46 63.7402 2432.6 73.5977C2426.39 79.8081 2421.82 87.6054 2419.29 96.0106C2413.19 97.161 2407.44 100.135 2403.05 104.523C2397.33 110.243 2394 118.28 2394 126.369C2394 134.458 2397.33 142.497 2403.05 148.217C2408.77 153.936 2416.81 157.266 2424.9 157.266H2563.28C2568.44 157.266 2573.57 155.142 2577.22 151.491C2580.88 147.84 2583 142.707 2583 137.544C2583 132.381 2580.88 127.251 2577.22 123.601C2573.6 119.972 2568.5 117.854 2563.37 117.828C2562.37 108.473 2558.13 99.4689 2551.48 92.811C2543.81 85.1442 2533.03 80.68 2522.19 80.68C2519.56 80.68 2516.93 80.9499 2514.35 81.4581C2512.46 78.6397 2510.31 75.9984 2507.91 73.5977C2498.05 63.7402 2484.2 58 2470.26 58Z" fill="#F1F7EE"/>
</g>
<g filter="url(#filter16_d_2003_626)">
<path d="M2625.26 0C2611.32 0 2597.46 5.7402 2587.6 15.5977C2581.39 21.8081 2576.82 29.6054 2574.29 38.0106C2568.19 39.161 2562.44 42.1351 2558.05 46.5233C2552.33 52.243 2549 60.2798 2549 68.3687C2549 76.4577 2552.33 84.497 2558.05 90.2167C2563.77 95.9364 2571.81 99.266 2579.9 99.266H2718.28C2723.44 99.266 2728.57 97.1416 2732.22 93.4909C2735.88 89.84 2738 84.7075 2738 79.5443C2738 74.3812 2735.88 69.2514 2732.22 65.6006C2728.6 61.972 2723.5 59.8538 2718.37 59.8277C2717.37 50.473 2713.13 41.4689 2706.48 34.811C2698.81 27.1442 2688.03 22.68 2677.19 22.68C2674.56 22.68 2671.93 22.9499 2669.35 23.4581C2667.46 20.6397 2665.31 17.9984 2662.91 15.5977C2653.05 5.7402 2639.2 0 2625.26 0Z" fill="#F1F7EE"/>
</g>
<g filter="url(#filter17_d_2003_626)">
<path d="M2308.7 17C2298.15 17 2287.67 21.7418 2280.21 29.8846C2275.51 35.0149 2272.05 41.4559 2270.13 48.3992C2265.52 49.3494 2261.17 51.8063 2257.85 55.4312C2253.52 60.156 2251 66.7949 2251 73.4768C2251 80.1588 2253.52 86.7998 2257.85 91.5247C2262.17 96.2495 2268.26 99 2274.38 99H2379.08C2382.98 99 2386.87 97.2451 2389.63 94.2294C2392.39 91.2135 2394 86.9737 2394 82.7086C2394 78.4435 2392.39 74.2061 2389.63 71.1902C2386.88 68.1928 2383.03 66.443 2379.15 66.4214C2378.39 58.6939 2375.19 51.2559 2370.15 45.7561C2364.35 39.4228 2356.19 35.7351 2347.99 35.7351C2346 35.7351 2344.01 35.9581 2342.06 36.3778C2340.63 34.0497 2339 31.8678 2337.19 29.8846C2329.73 21.7418 2319.24 17 2308.7 17Z" fill="#F1F7EE"/>
</g>
<defs>
<filter id="filter0_d_2003_626" x="258" y="58" width="197" height="107.266" filterUnits="userSpaceOnUse" color-interpolation-filters="sRGB">
<feFlood flood-opacity="0" result="BackgroundImageFix"/>
<feColorMatrix in="SourceAlpha" type="matrix" values="0 0 0 0 0 0 0 0 0 0 0 0 0 0 0 0 0 0 127 0" result="hardAlpha"/>
<feOffset dx="4" dy="4"/>
<feGaussianBlur stdDeviation="2"/>
<feComposite in2="hardAlpha" operator="out"/>
<feColorMatrix type="matrix" values="0 0 0 0 0 0 0 0 0 0 0 0 0 0 0 0 0 0 0.25 0"/>
<feBlend mode="normal" in2="BackgroundImageFix" result="effect1_dropShadow_2003_626"/>
<feBlend mode="normal" in="SourceGraphic" in2="effect1_dropShadow_2003_626" result="shape"/>
</filter>
<filter id="filter1_d_2003_626" x="0" y="82" width="197" height="107.266" filterUnits="userSpaceOnUse" color-interpolation-filters="sRGB">
<feFlood flood-opacity="0" result="BackgroundImageFix"/>
<feColorMatrix in="SourceAlpha" type="matrix" values="0 0 0 0 0 0 0 0 0 0 0 0 0 0 0 0 0 0 127 0" result="hardAlpha"/>
<feOffset dx="4" dy="4"/>
<feGaussianBlur stdDeviation="2"/>
<feComposite in2="hardAlpha" operator="out"/>
<feColorMatrix type="matrix" values="0 0 0 0 0 0 0 0 0 0 0 0 0 0 0 0 0 0 0.25 0"/>
<feBlend mode="normal" in2="BackgroundImageFix" result="effect1_dropShadow_2003_626"/>
<feBlend mode="normal" in="SourceGraphic" in2="effect1_dropShadow_2003_626" result="shape"/>
</filter>
<filter id="filter2_d_2003_626" x="117" y="17" width="151" height="90" filterUnits="userSpaceOnUse" color-interpolation-filters="sRGB">
<feFlood flood-opacity="0" result="BackgroundImageFix"/>
<feColorMatrix in="SourceAlpha" type="matrix" values="0 0 0 0 0 0 0 0 0 0 0 0 0 0 0 0 0 0 127 0" result="hardAlpha"/>
<feOffset dx="4" dy="4"/>
<feGaussianBlur stdDeviation="2"/>
<feComposite in2="hardAlpha" operator="out"/>
<feColorMatrix type="matrix" values="0 0 0 0 0 0 0 0 0 0 0 0 0 0 0 0 0 0 0.25 0"/>
<feBlend mode="normal" in2="BackgroundImageFix" result="effect1_dropShadow_2003_626"/>
<feBlend mode="normal" in="SourceGraphic" in2="effect1_dropShadow_2003_626" result="shape"/>
</filter>
<filter id="filter3_d_2003_626" x="577" y="58" width="197" height="107.266" filterUnits="userSpaceOnUse" color-interpolation-filters="sRGB">
<feFlood flood-opacity="0" result="BackgroundImageFix"/>
<feColorMatrix in="SourceAlpha" type="matrix" values="0 0 0 0 0 0 0 0 0 0 0 0 0 0 0 0 0 0 127 0" result="hardAlpha"/>
<feOffset dx="4" dy="4"/>
<feGaussianBlur stdDeviation="2"/>
<feComposite in2="hardAlpha" operator="out"/>
<feColorMatrix type="matrix" values="0 0 0 0 0 0 0 0 0 0 0 0 0 0 0 0 0 0 0.25 0"/>
<feBlend mode="normal" in2="BackgroundImageFix" result="effect1_dropShadow_2003_626"/>
<feBlend mode="normal" in="SourceGraphic" in2="effect1_dropShadow_2003_626" result="shape"/>
</filter>
<filter id="filter4_d_2003_626" x="732" y="0" width="197" height="107.266" filterUnits="userSpaceOnUse" color-interpolation-filters="sRGB">
<feFlood flood-opacity="0" result="BackgroundImageFix"/>
<feColorMatrix in="SourceAlpha" type="matrix" values="0 0 0 0 0 0 0 0 0 0 0 0 0 0 0 0 0 0 127 0" result="hardAlpha"/>
<feOffset dx="4" dy="4"/>
<feGaussianBlur stdDeviation="2"/>
<feComposite in2="hardAlpha" operator="out"/>
<feColorMatrix type="matrix" values="0 0 0 0 0 0 0 0 0 0 0 0 0 0 0 0 0 0 0.25 0"/>
<feBlend mode="normal" in2="BackgroundImageFix" result="effect1_dropShadow_2003_626"/>
<feBlend mode="normal" in="SourceGraphic" in2="effect1_dropShadow_2003_626" result="shape"/>
</filter>
<filter id="filter5_d_2003_626" x="434" y="17" width="151" height="90" filterUnits="userSpaceOnUse" color-interpolation-filters="sRGB">
<feFlood flood-opacity="0" result="BackgroundImageFix"/>
<feColorMatrix in="SourceAlpha" type="matrix" values="0 0 0 0 0 0 0 0 0 0 0 0 0 0 0 0 0 0 127 0" result="hardAlpha"/>
<feOffset dx="4" dy="4"/>
<feGaussianBlur stdDeviation="2"/>
<feComposite in2="hardAlpha" operator="out"/>
<feColorMatrix type="matrix" values="0 0 0 0 0 0 0 0 0 0 0 0 0 0 0 0 0 0 0.25 0"/>
<feBlend mode="normal" in2="BackgroundImageFix" result="effect1_dropShadow_2003_626"/>
<feBlend mode="normal" in="SourceGraphic" in2="effect1_dropShadow_2003_626" result="shape"/>
</filter>
<filter id="filter6_d_2003_626" x="1154" y="58" width="197" height="107.266" filterUnits="userSpaceOnUse" color-interpolation-filters="sRGB">
<feFlood flood-opacity="0" result="BackgroundImageFix"/>
<feColorMatrix in="SourceAlpha" type="matrix" values="0 0 0 0 0 0 0 0 0 0 0 0 0 0 0 0 0 0 127 0" result="hardAlpha"/>
<feOffset dx="4" dy="4"/>
<feGaussianBlur stdDeviation="2"/>
<feComposite in2="hardAlpha" operator="out"/>
<feColorMatrix type="matrix" values="0 0 0 0 0 0 0 0 0 0 0 0 0 0 0 0 0 0 0.25 0"/>
<feBlend mode="normal" in2="BackgroundImageFix" result="effect1_dropShadow_2003_626"/>
<feBlend mode="normal" in="SourceGraphic" in2="effect1_dropShadow_2003_626" result="shape"/>
</filter>
<filter id="filter7_d_2003_626" x="896" y="82" width="197" height="107.266" filterUnits="userSpaceOnUse" color-interpolation-filters="sRGB">
<feFlood flood-opacity="0" result="BackgroundImageFix"/>
<feColorMatrix in="SourceAlpha" type="matrix" values="0 0 0 0 0 0 0 0 0 0 0 0 0 0 0 0 0 0 127 0" result="hardAlpha"/>
<feOffset dx="4" dy="4"/>
<feGaussianBlur stdDeviation="2"/>
<feComposite in2="hardAlpha" operator="out"/>
<feColorMatrix type="matrix" values="0 0 0 0 0 0 0 0 0 0 0 0 0 0 0 0 0 0 0.25 0"/>
<feBlend mode="normal" in2="BackgroundImageFix" result="effect1_dropShadow_2003_626"/>
<feBlend mode="normal" in="SourceGraphic" in2="effect1_dropShadow_2003_626" result="shape"/>
</filter>
<filter id="filter8_d_2003_626" x="1013" y="17" width="151" height="90" filterUnits="userSpaceOnUse" color-interpolation-filters="sRGB">
<feFlood flood-opacity="0" result="BackgroundImageFix"/>
<feColorMatrix in="SourceAlpha" type="matrix" values="0 0 0 0 0 0 0 0 0 0 0 0 0 0 0 0 0 0 127 0" result="hardAlpha"/>
<feOffset dx="4" dy="4"/>
<feGaussianBlur stdDeviation="2"/>
<feComposite in2="hardAlpha" operator="out"/>
<feColorMatrix type="matrix" values="0 0 0 0 0 0 0 0 0 0 0 0 0 0 0 0 0 0 0.25 0"/>
<feBlend mode="normal" in2="BackgroundImageFix" result="effect1_dropShadow_2003_626"/>
<feBlend mode="normal" in="SourceGraphic" in2="effect1_dropShadow_2003_626" result="shape"/>
</filter>
<filter id="filter9_d_2003_626" x="1473" y="58" width="197" height="107.266" filterUnits="userSpaceOnUse" color-interpolation-filters="sRGB">
<feFlood flood-opacity="0" result="BackgroundImageFix"/>
<feColorMatrix in="SourceAlpha" type="matrix" values="0 0 0 0 0 0 0 0 0 0 0 0 0 0 0 0 0 0 127 0" result="hardAlpha"/>
<feOffset dx="4" dy="4"/>
<feGaussianBlur stdDeviation="2"/>
<feComposite in2="hardAlpha" operator="out"/>
<feColorMatrix type="matrix" values="0 0 0 0 0 0 0 0 0 0 0 0 0 0 0 0 0 0 0.25 0"/>
<feBlend mode="normal" in2="BackgroundImageFix" result="effect1_dropShadow_2003_626"/>
<feBlend mode="normal" in="SourceGraphic" in2="effect1_dropShadow_2003_626" result="shape"/>
</filter>
<filter id="filter10_d_2003_626" x="1628" y="0" width="197" height="107.266" filterUnits="userSpaceOnUse" color-interpolation-filters="sRGB">
<feFlood flood-opacity="0" result="BackgroundImageFix"/>
<feColorMatrix in="SourceAlpha" type="matrix" values="0 0 0 0 0 0 0 0 0 0 0 0 0 0 0 0 0 0 127 0" result="hardAlpha"/>
<feOffset dx="4" dy="4"/>
<feGaussianBlur stdDeviation="2"/>
<feComposite in2="hardAlpha" operator="out"/>
<feColorMatrix type="matrix" values="0 0 0 0 0 0 0 0 0 0 0 0 0 0 0 0 0 0 0.25 0"/>
<feBlend mode="normal" in2="BackgroundImageFix" result="effect1_dropShadow_2003_626"/>
<feBlend mode="normal" in="SourceGraphic" in2="effect1_dropShadow_2003_626" result="shape"/>
</filter>
<filter id="filter11_d_2003_626" x="1330" y="17" width="151" height="90" filterUnits="userSpaceOnUse" color-interpolation-filters="sRGB">
<feFlood flood-opacity="0" result="BackgroundImageFix"/>
<feColorMatrix in="SourceAlpha" type="matrix" values="0 0 0 0 0 0 0 0 0 0 0 0 0 0 0 0 0 0 127 0" result="hardAlpha"/>
<feOffset dx="4" dy="4"/>
<feGaussianBlur stdDeviation="2"/>
<feComposite in2="hardAlpha" operator="out"/>
<feColorMatrix type="matrix" values="0 0 0 0 0 0 0 0 0 0 0 0 0 0 0 0 0 0 0.25 0"/>
<feBlend mode="normal" in2="BackgroundImageFix" result="effect1_dropShadow_2003_626"/>
<feBlend mode="normal" in="SourceGraphic" in2="effect1_dropShadow_2003_626" result="shape"/>
</filter>
<filter id="filter12_d_2003_626" x="2075" y="58" width="197" height="107.266" filterUnits="userSpaceOnUse" color-interpolation-filters="sRGB">
<feFlood flood-opacity="0" result="BackgroundImageFix"/>
<feColorMatrix in="SourceAlpha" type="matrix" values="0 0 0 0 0 0 0 0 0 0 0 0 0 0 0 0 0 0 127 0" result="hardAlpha"/>
<feOffset dx="4" dy="4"/>
<feGaussianBlur stdDeviation="2"/>
<feComposite in2="hardAlpha" operator="out"/>
<feColorMatrix type="matrix" values="0 0 0 0 0 0 0 0 0 0 0 0 0 0 0 0 0 0 0.25 0"/>
<feBlend mode="normal" in2="BackgroundImageFix" result="effect1_dropShadow_2003_626"/>
<feBlend mode="normal" in="SourceGraphic" in2="effect1_dropShadow_2003_626" result="shape"/>
</filter>
<filter id="filter13_d_2003_626" x="1817" y="82" width="197" height="107.266" filterUnits="userSpaceOnUse" color-interpolation-filters="sRGB">
<feFlood flood-opacity="0" result="BackgroundImageFix"/>
<feColorMatrix in="SourceAlpha" type="matrix" values="0 0 0 0 0 0 0 0 0 0 0 0 0 0 0 0 0 0 127 0" result="hardAlpha"/>
<feOffset dx="4" dy="4"/>
<feGaussianBlur stdDeviation="2"/>
<feComposite in2="hardAlpha" operator="out"/>
<feColorMatrix type="matrix" values="0 0 0 0 0 0 0 0 0 0 0 0 0 0 0 0 0 0 0.25 0"/>
<feBlend mode="normal" in2="BackgroundImageFix" result="effect1_dropShadow_2003_626"/>
<feBlend mode="normal" in="SourceGraphic" in2="effect1_dropShadow_2003_626" result="shape"/>
</filter>
<filter id="filter14_d_2003_626" x="1934" y="17" width="151" height="90" filterUnits="userSpaceOnUse" color-interpolation-filters="sRGB">
<feFlood flood-opacity="0" result="BackgroundImageFix"/>
<feColorMatrix in="SourceAlpha" type="matrix" values="0 0 0 0 0 0 0 0 0 0 0 0 0 0 0 0 0 0 127 0" result="hardAlpha"/>
<feOffset dx="4" dy="4"/>
<feGaussianBlur stdDeviation="2"/>
<feComposite in2="hardAlpha" operator="out"/>
<feColorMatrix type="matrix" values="0 0 0 0 0 0 0 0 0 0 0 0 0 0 0 0 0 0 0.25 0"/>
<feBlend mode="normal" in2="BackgroundImageFix" result="effect1_dropShadow_2003_626"/>
<feBlend mode="normal" in="SourceGraphic" in2="effect1_dropShadow_2003_626" result="shape"/>
</filter>
<filter id="filter15_d_2003_626" x="2394" y="58" width="197" height="107.266" filterUnits="userSpaceOnUse" color-interpolation-filters="sRGB">
<feFlood flood-opacity="0" result="BackgroundImageFix"/>
<feColorMatrix in="SourceAlpha" type="matrix" values="0 0 0 0 0 0 0 0 0 0 0 0 0 0 0 0 0 0 127 0" result="hardAlpha"/>
<feOffset dx="4" dy="4"/>
<feGaussianBlur stdDeviation="2"/>
<feComposite in2="hardAlpha" operator="out"/>
<feColorMatrix type="matrix" values="0 0 0 0 0 0 0 0 0 0 0 0 0 0 0 0 0 0 0.25 0"/>
<feBlend mode="normal" in2="BackgroundImageFix" result="effect1_dropShadow_2003_626"/>
<feBlend mode="normal" in="SourceGraphic" in2="effect1_dropShadow_2003_626" result="shape"/>
</filter>
<filter id="filter16_d_2003_626" x="2549" y="0" width="197" height="107.266" filterUnits="userSpaceOnUse" color-interpolation-filters="sRGB">
<feFlood flood-opacity="0" result="BackgroundImageFix"/>
<feColorMatrix in="SourceAlpha" type="matrix" values="0 0 0 0 0 0 0 0 0 0 0 0 0 0 0 0 0 0 127 0" result="hardAlpha"/>
<feOffset dx="4" dy="4"/>
<feGaussianBlur stdDeviation="2"/>
<feComposite in2="hardAlpha" operator="out"/>
<feColorMatrix type="matrix" values="0 0 0 0 0 0 0 0 0 0 0 0 0 0 0 0 0 0 0.25 0"/>
<feBlend mode="normal" in2="BackgroundImageFix" result="effect1_dropShadow_2003_626"/>
<feBlend mode="normal" in="SourceGraphic" in2="effect1_dropShadow_2003_626" result="shape"/>
</filter>
<filter id="filter17_d_2003_626" x="2251" y="17" width="151" height="90" filterUnits="userSpaceOnUse" color-interpolation-filters="sRGB">
<feFlood flood-opacity="0" result="BackgroundImageFix"/>
<feColorMatrix in="SourceAlpha" type="matrix" values="0 0 0 0 0 0 0 0 0 0 0 0 0 0 0 0 0 0 127 0" result="hardAlpha"/>
<feOffset dx="4" dy="4"/>
<feGaussianBlur stdDeviation="2"/>
<feComposite in2="hardAlpha" operator="out"/>
<feColorMatrix type="matrix" values="0 0 0 0 0 0 0 0 0 0 0 0 0 0 0 0 0 0 0.25 0"/>
<feBlend mode="normal" in2="BackgroundImageFix" result="effect1_dropShadow_2003_626"/>
<feBlend mode="normal" in="SourceGraphic" in2="effect1_dropShadow_2003_626" result="shape"/>
</filter>
</defs>
</svg>
